<svg width="256" height="262" viewBox="0 0 256 262" fill="none" xmlns="http://www.w3.org/2000/svg">
<g filter="url(#filter0_i)">
<path fill-rule="evenodd" clip-rule="evenodd" d="M8.61537 106.768C3.8196 96.0674 8.85292 83.5785 19.7296 79.1907L154.418 24.8551C164.469 20.8002 175.997 25.1312 180.894 34.8017L245.348 162.102C250.673 172.619 246.167 185.396 235.424 190.239L96.9623 252.666C86.442 257.409 74.0166 252.69 69.2965 242.159L8.61537 106.768Z" fill="url(#paint0_linear)"/>
</g>
<g filter="url(#filter1_i)">
<path fill-rule="evenodd" clip-rule="evenodd" d="M42.0147 47.9256C40.3757 37.7292 47.3199 28.1581 57.5216 26.5526L207.764 2.90773C217.961 1.30287 227.551 8.26502 229.184 18.4581L252.942 166.816C254.639 177.413 247.398 187.35 236.79 188.98L86.5524 212.068C76.7561 213.574 67.5648 206.88 65.9918 197.094L42.0147 47.9256Z" fill="url(#paint1_linear)"/>
</g>
<path fill-rule="evenodd" clip-rule="evenodd" d="M144.72 92.9333L182.552 86.9933L176.655 50.0819L101.685 61.853L101.739 62.1916L144.72 92.9333Z" fill="url(#paint2_linear)"/>
<path fill-rule="evenodd" clip-rule="evenodd" d="M144.726 92.9316L106.894 98.8716L112.792 135.783L187.762 124.012L187.708 123.673L144.726 92.9316Z" fill="url(#paint3_linear)"/>
<path fill-rule="evenodd" clip-rule="evenodd" d="M112.792 135.782L150.273 129.897L156.224 167.149L112.792 135.782Z" fill="url(#paint4_linear)"/>
<defs>
<filter id="filter0_i" x="6.79777" y="23.3384" width="242.832" height="233.214" filterUnits="userSpaceOnUse" color-interpolation-filters="sRGB">
<feFlood flood-opacity="0" result="BackgroundImageFix"/>
<feBlend mode="normal" in="SourceGraphic" in2="BackgroundImageFix" result="shape"/>
<feColorMatrix in="SourceAlpha" type="matrix" values="0 0 0 0 0 0 0 0 0 0 0 0 0 0 0 0 0 0 127 0" result="hardAlpha"/>
<feOffset dx="0.398672" dy="0.398672"/>
<feGaussianBlur stdDeviation="0.199336"/>
<feComposite in2="hardAlpha" operator="arithmetic" k2="-1" k3="1"/>
<feColorMatrix type="matrix" values="0 0 0 0 1 0 0 0 0 1 0 0 0 0 1 0 0 0 0.478261 0"/>
<feBlend mode="normal" in2="shape" result="effect1_innerShadow"/>
</filter>
<filter id="filter1_i" x="41.7751" y="2.67766" width="211.413" height="211.643" filterUnits="userSpaceOnUse" color-interpolation-filters="sRGB">
<feFlood flood-opacity="0" result="BackgroundImageFix"/>
<feBlend mode="normal" in="SourceGraphic" in2="BackgroundImageFix" result="shape"/>
<feColorMatrix in="SourceAlpha" type="matrix" values="0 0 0 0 0 0 0 0 0 0 0 0 0 0 0 0 0 0 127 0" result="hardAlpha"/>
<feOffset dy="0.398669"/>
<feGaussianBlur stdDeviation="0.199334"/>
<feComposite in2="hardAlpha" operator="arithmetic" k2="-1" k3="1"/>
<feColorMatrix type="matrix" values="0 0 0 0 1 0 0 0 0 1 0 0 0 0 1 0 0 0 0.26087 0"/>
<feBlend mode="normal" in2="shape" result="effect1_innerShadow"/>
</filter>
<linearGradient id="paint0_linear" x1="-57.0518" y1="155.934" x2="91.3585" y2="299.525" gradientUnits="userSpaceOnUse">
<stop stop-color="#00F3FF"/>
<stop offset="0.358293" stop-color="#00A8FC"/>
<stop offset="1" stop-color="#0048DF"/>
</linearGradient>
<linearGradient id="paint1_linear" x1="39.0564" y1="29.3974" x2="68.2663" y2="215.435" gradientUnits="userSpaceOnUse">
<stop stop-color="white"/>
<stop offset="0.489734" stop-color="white"/>
<stop offset="1" stop-color="#D9F3FF"/>
</linearGradient>
<linearGradient id="paint2_linear" x1="179.469" y1="51.9533" x2="113.221" y2="52.4902" gradientUnits="userSpaceOnUse">
<stop stop-color="#8DE4FF"/>
<stop offset="1" stop-color="#30CEFF"/>
</linearGradient>
<linearGradient id="paint3_linear" x1="182.199" y1="89.1958" x2="115.769" y2="99.8094" gradientUnits="userSpaceOnUse">
<stop stop-color="#00C5FF"/>
<stop offset="1" stop-color="#009AFF"/>
</linearGradient>
<linearGradient id="paint4_linear" x1="112.792" y1="135.782" x2="118.643" y2="173.049" gradientUnits="userSpaceOnUse">
<stop stop-color="#005AFF"/>
<stop offset="1" stop-color="#008DFF"/>
</linearGradient>
</defs>
</svg>
